<svg xmlns="http://www.w3.org/2000/svg" viewBox="0 0 320 240" role="img" aria-label="AIVIA GUIDE">
  <rect width="320" height="240" rx="18" fill="#f7f9fc"/>
  <rect x="24" y="24" width="272" height="192" rx="14" fill="#ffffff" stroke="#dfe4ea" stroke-width="3"/>
  <path d="M54 162C80 117 113 96 153 96c42 0 69 28 112-11" fill="none" stroke="#14715f" stroke-width="10" stroke-linecap="round"/>
  <path d="M54 134c36-52 86-64 150-34" fill="none" stroke="#c73e3a" stroke-width="10" stroke-linecap="round"/>
  <circle cx="92" cy="134" r="14" fill="#f2c84b" stroke="#1c2430" stroke-width="5"/>
  <circle cx="156" cy="96" r="16" fill="#1c2430"/>
  <circle cx="235" cy="88" r="13" fill="#c73e3a"/>
  <rect x="52" y="48" width="90" height="14" rx="7" fill="#1c2430"/>
  <rect x="52" y="72" width="132" height="10" rx="5" fill="#dfe4ea"/>
  <rect x="52" y="184" width="70" height="12" rx="6" fill="#dfe4ea"/>
  <rect x="134" y="184" width="44" height="12" rx="6" fill="#14715f"/>
  <rect x="190" y="184" width="54" height="12" rx="6" fill="#c73e3a"/>
</svg>
